<?xml version="1.0" encoding="utf-8"?>
<!-- Generator: Adobe Illustrator 19.2.1, SVG Export Plug-In . SVG Version: 6.00 Build 0)  -->
<svg version="1.1" id="Layer_1" xmlns="http://www.w3.org/2000/svg" xmlns:xlink="http://www.w3.org/1999/xlink" x="0px" y="0px"
	 viewBox="0 0 304 144" style="enable-background:new 0 0 304 144;" xml:space="preserve">
<style type="text/css">
	.st0{fill:#336666;}
	.st1{fill:#66CC99;}
</style>
<path class="st0" d="M198.8,75.4l6.4,8.6h2V72h-2v8.6l-6.4-8.6h-2v12h2V75.4z M174.3,80.4h2.8c3,0,4.8-1.6,4.8-4.3
	c0-2.6-1.7-4.1-4.8-4.1h-4.8v12h2V80.4z M174.3,73.8h2.7c1.9,0,2.9,0.8,2.9,2.3c0,1.6-1,2.4-2.9,2.4h-2.7V73.8z M193.5,82.2h-6.8
	v-3.3h5.9v-1.8h-5.9v-3.2h6.6V72h-8.6v12h8.8V82.2z M162.8,84.1c3.6,0,6.4-2.7,6.4-6.1c0-3.4-2.8-6.1-6.4-6.1
	c-3.6,0-6.4,2.6-6.4,6.1C156.4,81.4,159.2,84.1,162.8,84.1z M162.8,73.8c2.3,0,4.3,1.9,4.3,4.2s-1.9,4.3-4.3,4.3s-4.3-1.9-4.3-4.3
	S160.4,73.8,162.8,73.8z M230.7,91l3.8,7.7h1.3l3.8-7.7l0,9h1.9V88h-2.4l-3.9,8l-4-8h-2.4v12h1.9V91z M176.6,89.8V88H168v12h8.8
	v-1.8H170v-3.3h5.9v-1.8H170v-3.2H176.6z M156,89.8h3.8V100h2V89.8h3.8V88H156V89.8z M198.3,89.8V88h-8.6v12h8.8v-1.8h-6.8v-3.3h5.9
	v-1.8h-5.9v-3.2H198.3z M219.4,100.1c3.6,0,6.4-2.7,6.4-6.1c0-3.4-2.8-6.1-6.4-6.1c-3.6,0-6.4,2.6-6.4,6.1
	C213,97.4,215.8,100.1,219.4,100.1z M219.4,89.8c2.3,0,4.3,1.9,4.3,4.2s-1.9,4.3-4.3,4.3s-4.3-1.9-4.3-4.3S217,89.8,219.4,89.8z
	 M210.2,96.8c-0.9,0.9-2.1,1.4-3.3,1.4c-2.4,0-4.3-1.9-4.3-4.2s1.9-4.2,4.3-4.2c1.2,0,2.5,0.6,3.3,1.5l1.2-1.5
	c-1.2-1.1-2.9-1.9-4.6-1.9c-3.5,0-6.3,2.6-6.3,6c0,3.4,2.7,6.1,6.2,6.1c1.7,0,3.4-0.8,4.6-2L210.2,96.8z M187.2,98.2H182V88h-2v12
	h7.2V98.2z M233.7,105.8h3.8V116h2v-10.2h3.8V104h-9.6V105.8z M227,104l-5.3,12h2.1l1.1-2.7h6.1l1.1,2.7h2.2l-5.2-12H227z
	 M225.7,111.5l2.3-5.3l2.3,5.3H225.7z M245.4,116h2v-12h-2V116z M256.5,103.9c-3.6,0-6.4,2.6-6.4,6.1c0,3.4,2.8,6.1,6.4,6.1
	c3.6,0,6.4-2.7,6.4-6.1C262.9,106.6,260.1,103.9,256.5,103.9z M256.5,114.3c-2.3,0-4.3-1.9-4.3-4.3s2-4.2,4.3-4.2
	c2.3,0,4.3,1.9,4.3,4.2S258.9,114.3,256.5,114.3z M274,104v8.6l-6.4-8.6h-2v12h2v-8.6l6.4,8.6h2v-12H274z M190.5,111
	c0,2-1.2,3.2-3.2,3.2c-2,0-3.2-1.2-3.2-3.2v-7h-2v7c0,3.1,2,5.1,5.2,5.1c3.2,0,5.2-1.9,5.2-5.1v-7h-2V111z M173.2,103.9
	c-3.6,0-6.4,2.6-6.4,6.1c0,3.4,2.8,6.1,6.4,6.1c3.6,0,6.4-2.7,6.4-6.1C179.6,106.6,176.8,103.9,173.2,103.9z M173.2,114.3
	c-2.3,0-4.3-1.9-4.3-4.3s2-4.2,4.3-4.2c2.3,0,4.3,1.9,4.3,4.2S175.6,114.3,173.2,114.3z M214.9,104h-4.9v12h4.9c3.6,0,6.3-2.5,6.3-6
	C221.1,106.5,218.5,104,214.9,104z M214.9,114.2h-3v-8.4h2.9c2.4,0,4.2,1.7,4.2,4.2C219,112.5,217.2,114.2,214.9,114.2z M157.4,116
	h2v-4.9h5.5v-1.8h-5.5v-3.5h6l0-1.8h-8.1V116z M204.3,112.6l-6.4-8.6h-2v12h2v-8.6l6.4,8.6h2v-12h-2V112.6z"/>
<path class="st1" d="M95,54c-3.6-14.9-17-26-33-26c-18.8,0-34,15.2-34,34c0,18.8,15.2,34,34,34c16,0,29.4-11.1,33-26h17v46h16V70h20
	V54H95z M62,80c-9.9,0-18-8.1-18-18c0-9.9,8.1-18,18-18s18,8.1,18,18C80,71.9,71.9,80,62,80z"/>
</svg>
