<?xml version="1.0" encoding="utf-8"?>
<!-- Generator: Adobe Illustrator 19.2.1, SVG Export Plug-In . SVG Version: 6.00 Build 0)  -->
<svg version="1.1" id="Layer_1" xmlns="http://www.w3.org/2000/svg" xmlns:xlink="http://www.w3.org/1999/xlink" x="0px" y="0px"
	 viewBox="0 0 176 192" style="enable-background:new 0 0 176 192;" xml:space="preserve">
<style type="text/css">
	.st0{fill:#FFFFFF;}
	.st1{fill:#336666;}
</style>
<path class="st0" d="M95,54c-3.6-14.9-17-26-33-26c-18.8,0-34,15.2-34,34c0,18.8,15.2,34,34,34c16,0,29.4-11.1,33-26h17v46h16V70h20
	V54H95z M62,80c-9.9,0-18-8.1-18-18c0-9.9,8.1-18,18-18s18,8.1,18,18C80,71.9,71.9,80,62,80z"/>
<path class="st1" d="M70.8,123.4l6.4,8.6h2v-12h-2v8.6l-6.4-8.6h-2v12h2V123.4z M46.3,128.4h2.8c3,0,4.8-1.6,4.8-4.3
	c0-2.6-1.7-4.1-4.8-4.1h-4.8v12h2V128.4z M46.3,121.8H49c1.9,0,2.9,0.8,2.9,2.3c0,1.6-1,2.4-2.9,2.4h-2.7V121.8z M65.5,130.2h-6.8
	v-3.3h5.9v-1.8h-5.9v-3.2h6.6V120h-8.6v12h8.8V130.2z M34.8,132.1c3.6,0,6.4-2.7,6.4-6.1c0-3.4-2.8-6.1-6.4-6.1
	c-3.6,0-6.4,2.6-6.4,6.1C28.4,129.4,31.2,132.1,34.8,132.1z M34.8,121.8c2.3,0,4.3,1.9,4.3,4.2s-1.9,4.3-4.3,4.3s-4.3-1.9-4.3-4.3
	S32.4,121.8,34.8,121.8z M102.7,139l3.8,7.7h1.3l3.8-7.7l0,9h1.9v-12h-2.4l-3.9,8l-4-8h-2.4v12h1.9V139z M48.6,137.8V136H40v12h8.8
	v-1.8H42v-3.3h5.9v-1.8H42v-3.2H48.6z M28,137.8h3.8V148h2v-10.2h3.8V136H28V137.8z M70.3,137.8V136h-8.6v12h8.8v-1.8h-6.8v-3.3h5.9
	v-1.8h-5.9v-3.2H70.3z M91.4,148.1c3.6,0,6.4-2.7,6.4-6.1c0-3.4-2.8-6.1-6.4-6.1c-3.6,0-6.4,2.6-6.4,6.1
	C85,145.4,87.8,148.1,91.4,148.1z M91.4,137.8c2.3,0,4.3,1.9,4.3,4.2s-1.9,4.3-4.3,4.3s-4.3-1.9-4.3-4.3S89,137.8,91.4,137.8z
	 M82.2,144.8c-0.9,0.9-2.1,1.4-3.3,1.4c-2.4,0-4.3-1.9-4.3-4.2s1.9-4.2,4.3-4.2c1.2,0,2.5,0.6,3.3,1.5l1.2-1.5
	c-1.2-1.1-2.9-1.9-4.6-1.9c-3.5,0-6.3,2.6-6.3,6c0,3.4,2.7,6.1,6.2,6.1c1.7,0,3.4-0.8,4.6-2L82.2,144.8z M59.2,146.2H54V136h-2v12
	h7.2V146.2z M105.7,153.8h3.8V164h2v-10.2h3.8V152h-9.6V153.8z M99,152l-5.3,12h2.1l1.1-2.7h6.1l1.1,2.7h2.2l-5.2-12H99z
	 M97.7,159.5l2.3-5.3l2.3,5.3H97.7z M117.4,164h2v-12h-2V164z M128.5,151.9c-3.6,0-6.4,2.6-6.4,6.1c0,3.4,2.8,6.1,6.4,6.1
	c3.6,0,6.4-2.7,6.4-6.1C134.9,154.6,132.1,151.9,128.5,151.9z M128.5,162.3c-2.3,0-4.3-1.9-4.3-4.3s2-4.2,4.3-4.2
	c2.3,0,4.3,1.9,4.3,4.2S130.9,162.3,128.5,162.3z M146,152v8.6l-6.4-8.6h-2v12h2v-8.6l6.4,8.6h2v-12H146z M62.5,159
	c0,2-1.2,3.2-3.2,3.2c-2,0-3.2-1.2-3.2-3.2v-7h-2v7c0,3.1,2,5.1,5.2,5.1c3.2,0,5.2-1.9,5.2-5.1v-7h-2V159z M45.2,151.9
	c-3.6,0-6.4,2.6-6.4,6.1c0,3.4,2.8,6.1,6.4,6.1c3.6,0,6.4-2.7,6.4-6.1C51.6,154.6,48.8,151.9,45.2,151.9z M45.2,162.3
	c-2.3,0-4.3-1.9-4.3-4.3s2-4.2,4.3-4.2c2.3,0,4.3,1.9,4.3,4.2S47.6,162.3,45.2,162.3z M86.9,152h-4.9v12h4.9c3.6,0,6.3-2.5,6.3-6
	C93.1,154.5,90.5,152,86.9,152z M86.9,162.2h-3v-8.4h2.9c2.4,0,4.2,1.7,4.2,4.2C91,160.5,89.2,162.2,86.9,162.2z M29.4,164h2v-4.9
	h5.5v-1.8h-5.5v-3.5h6l0-1.8h-8.1V164z M76.3,160.6l-6.4-8.6h-2v12h2v-8.6l6.4,8.6h2v-12h-2V160.6z"/>
</svg>
